<?xml version="1.0" encoding="utf-8"?>
<!-- Generator: Adobe Illustrator 26.0.1, SVG Export Plug-In . SVG Version: 6.00 Build 0)  -->
<svg version="1.1" id="Ebene_1" xmlns="http://www.w3.org/2000/svg" xmlns:xlink="http://www.w3.org/1999/xlink" x="0px" y="0px"
	 viewBox="0 0 1400 1400" style="enable-background:new 0 0 1400 1400;" xml:space="preserve">
<style type="text/css">
	.st0{fill:#C6C5C5;}
	.st1{fill:#318168;}
</style>
<g>
	<path class="st0" d="M700,313.7c52.2,0,102.8,10.2,150.3,30.3c46,19.5,87.3,47.3,122.8,82.8c35.5,35.5,63.4,76.8,82.8,122.8
		c20.1,47.6,30.3,98.2,30.3,150.3s-10.2,102.8-30.3,150.3c-19.5,46-47.3,87.3-82.8,122.8c-35.5,35.5-76.8,63.4-122.8,82.8
		c-47.6,20.1-98.2,30.3-150.3,30.3s-102.8-10.2-150.3-30.3c-46-19.5-87.3-47.3-122.8-82.8c-35.5-35.5-63.4-76.8-82.8-122.8
		c-20.1-47.6-30.3-98.2-30.3-150.3s10.2-102.8,30.3-150.3c19.5-46,47.3-87.3,82.8-122.8s76.8-63.4,122.8-82.8
		C597.2,323.9,647.8,313.7,700,313.7 M700,239.7c-254.2,0-460.3,206.1-460.3,460.3s206.1,460.3,460.3,460.3s460.3-206.1,460.3-460.3
		S954.2,239.7,700,239.7L700,239.7z"/>
</g>
<g>
	<polygon class="st1" points="700,4.3 620.7,207 779.3,207 700,4.3 	"/>
</g>
</svg>
