<svg id="Ebene_1" data-name="Ebene 1" xmlns="http://www.w3.org/2000/svg" viewBox="0 0 1400 1400"><defs><style>.cls-1{fill:#fff;}.cls-2{fill:#318168;}.cls-3{fill:none;stroke:#318168;stroke-miterlimit:10;stroke-width:122.4px;}</style></defs><path class="cls-1" d="M700,1317.66A617.84,617.84,0,0,1,459.61,130.85a617.83,617.83,0,0,1,480.78,1138.3A613.59,613.59,0,0,1,700,1317.66Z"/><path class="cls-2" d="M700,164.69A532.06,532.06,0,0,1,999.18,256a537.33,537.33,0,0,1,194.13,235.67A534.41,534.41,0,0,1,1144,999.18a537.33,537.33,0,0,1-235.67,194.13A534.41,534.41,0,0,1,400.82,1144,537.33,537.33,0,0,1,206.69,908.32,534.41,534.41,0,0,1,256,400.82,537.33,537.33,0,0,1,491.68,206.69a531.8,531.8,0,0,1,208.32-42M700,0C313.4,0,0,313.4,0,700s313.4,700,700,700,700-313.4,700-700S1086.6,0,700,0Z"/><line class="cls-3" x1="700" y1="313.36" x2="700" y2="1086.64"/><line class="cls-3" x1="1086.64" y1="700" x2="313.36" y2="700"/></svg>